<svg xmlns="http://www.w3.org/2000/svg" viewBox="0 0 100 105">
  <path fill="#C86830" stroke="none" d="M58,50 Q70,52 72,64 Q70,76 62,80 Q50,80 46,72 Q48,58 58,50 Z"/>
  <g stroke="#3A6BC4" stroke-linecap="round" stroke-linejoin="round" fill="none">
    <path stroke-width="2" d="M18,58 Q6,54 4,60 Q4,68 8,72 Q14,70 18,66"/>
    <path stroke-width="2" d="M44,47 Q64,46 72,56 Q78,66 74,78 Q66,86 44,86 Q22,84 18,72 Q18,58 44,47 Z"/>
    <circle stroke-width="2" cx="66" cy="34" r="15"/>
    <path stroke-width="2" d="M80,32 L90,34 L80,36"/>
    <path stroke-width="1" d="M34,52 Q50,46 66,52"/>
    <path stroke-width="1" d="M32,58 Q48,52 64,58"/>
    <path stroke-width="1" d="M30,64 Q46,58 62,64"/>
    <path stroke-width="1" d="M28,70 Q44,64 60,70"/>
    <path stroke-width="1.4" d="M18,60 Q16,64 18,70"/>
    <path stroke-width="1" d="M58,22 Q62,18 66,22"/>
    <path stroke-width="1" d="M62,20 Q66,16 70,22"/>
    <circle cx="70" cy="31" r="3" fill="#3A6BC4" stroke="none"/>
    <circle stroke-width="1.2" cx="70" cy="31" r="5"/>
    <line stroke-width="1.6" x1="36" y1="84" x2="34" y2="92"/>
    <path stroke-width="1.2" d="M34,92 L28,97 M34,92 L36,98 M34,92 L40,95"/>
    <line stroke-width="1.6" x1="50" y1="84" x2="48" y2="92"/>
    <path stroke-width="1.2" d="M48,92 L42,97 M48,92 L50,98 M48,92 L54,95"/>
    <path stroke-width="1.8" d="M24,94 Q42,92 58,94"/>
  </g>
</svg>
