<svg xmlns="http://www.w3.org/2000/svg" viewBox="0 0 100 110">
  <g stroke="#2C1A0E" stroke-width="1.8" stroke-linecap="round" stroke-linejoin="round" fill="none">
    <path d="M26,14 Q22,4 18,14"/>
    <circle cx="38" cy="34" r="22"/>
    <path d="M18,26 Q16,34 18,44 Q24,52 36,54"/>
    <circle cx="26" cy="32" r="10"/>
    <circle cx="26" cy="32" r="6" fill="#2C1A0E" stroke="none"/>
    <circle cx="28" cy="30" r="2" fill="white" stroke="none"/>
    <path d="M17,38 Q12,44 16,50 Q20,48 17,38"/>
    <ellipse cx="64" cy="72" rx="26" ry="24"/>
    <path d="M40,56 Q54,50 78,58"/>
    <path d="M42,64 Q56,58 78,66"/>
    <path d="M44,72 Q58,68 78,74"/>
    <path d="M82,74 Q92,72 90,86 Q84,92 76,90"/>
    <line x1="54" y1="94" x2="52" y2="101"/>
    <path d="M52,101 L46,106 M52,101 L54,107 M52,101 L58,104"/>
    <line x1="68" y1="94" x2="70" y2="101"/>
    <path d="M70,101 L64,106 M70,101 L72,107 M70,101 L76,104"/>
    <path d="M38,102 Q62,100 82,102"/>
  </g>
</svg>
